<?xml version="1.0" encoding="utf-8"?>
<!-- Generator: Adobe Illustrator 23.0.1, SVG Export Plug-In . SVG Version: 6.00 Build 0)  -->
<svg version="1.1" id="Calque_1" xmlns="http://www.w3.org/2000/svg" xmlns:xlink="http://www.w3.org/1999/xlink" x="0px" y="0px"
	 viewBox="0 0 432 432" style="enable-background:new 0 0 432 432;" xml:space="preserve">
<style type="text/css">
	.st0{fill:#282828;}
	.st1{fill:#BF9C63;}
	.st2{fill:#C74E26;}
	.st3{fill:#036838;}
	.st4{fill:#9E1D28;}
	.st5{fill:#B3C66B;}
	.st6{fill:#C9678F;}
	.st7{fill:#6B4319;}
	.st8{fill:#DEAC57;}
	.st9{fill:#BF762C;}
	.st10{fill:#FBD66C;}
	.st11{fill:#B0BA87;}
	.st12{fill:#F29188;}
	.st13{fill:#746357;}
	.st14{fill:#7E8C66;}
	.st15{fill:#6493A8;}
	.st16{fill:#362317;}
	.st17{fill:#544841;}
	.st18{fill:#162640;}
	.st19{fill:#8FB368;}
	.st20{fill:#F2ACA5;}
	.st21{fill:#B68C57;}
	.st22{fill:#D5A8B2;}
	.st23{fill:#B6C8A3;}
	.st24{fill:#E0D8D1;}
	.st25{fill:#3C628E;}
	.st26{fill:#C7D2D8;}
	.st27{fill:#7D95B2;}
	.st28{fill:#B4B4B4;}
	.st29{fill:#9EAE87;}
	.st30{fill:#634E42;}
	.st31{fill:#EBCCD2;}
	.st32{fill:none;}
	.st33{fill:#C78140;}
	.st34{fill:#C69C6D;}
	.st35{fill:#A67C52;}
	.st36{fill:#A67D52;}
	.st37{fill:#827270;}
	.st38{fill:#499E49;}
	.st39{fill:#FBB959;}
	.st40{fill:#4D4D4D;}
	.st41{fill:#BA2314;}
	.st42{fill:#EB9BAB;}
	.st43{fill:#ABB9CE;}
	.st44{fill:#6595AA;}
	.st45{fill:#3E6689;}
	.st46{fill:#C0864D;}
	.st47{fill:#333333;}
	.st48{fill:#B5CCD8;}
	.st49{fill:#A6C882;}
	.st50{fill:#5E9581;}
	.st51{fill:#E3691E;}
	.st52{fill:#C75C1A;}
	.st53{fill:#DD852D;}
	.st54{fill:#A29E35;}
	.st55{fill:#AA4A3A;}
	.st56{fill:#C1272D;}
	.st57{fill:#E6E6E6;}
	.st58{fill:#FBB03B;}
	.st59{fill:#DFEBF2;}
	.st60{fill:#C0BA63;}
</style>
<g>
	<g>
		<path class="st4" d="M160.567,115.683c-1.369-0.013-2.741-0.025-4.112-0.039c-0.975-0.074-1.939-0.03-2.897-0.177
			c-0.524-0.045-1.131-0.224-1.559-0.515c-1.015-0.732-1.102-1.667-0.343-2.636c0.697-0.869,1.646-1.335,2.766-1.229
			c0.714,0.052,1.455,0.147,2.167,0.198c1.193,0.124,1.512-0.259,1.194-1.364c-0.422-1.472-0.915-2.96-1.427-4.376
			c-0.471-1.254-0.471-1.254-1.843-1.267c-3.237-0.026-6.169,0.933-8.891,2.63c-1.339,0.833-2.505,1.746-3.476,2.971
			c-1.592,1.92-1.979,4.082-1.128,6.34c1.461,3.736,4.116,6.107,8.077,6.798c1.943,0.337,3.888,0.178,5.795-0.143
			c1.159-0.228,2.291-0.499,3.489-0.564c0.964-0.043,2.028-0.025,2.953,0.266c2.356,0.7,3.451,3.053,2.596,5.258
			c-0.554,1.398-1.669,2.093-2.951,2.521c-1.958,0.538-3.908,0.887-5.964,0.868c-0.307,0.005-0.641-0.035-0.947-0.029
			c-0.702,0.066-1.004,0.377-0.821,1.069c0.6,2.353,1.227,4.749,1.897,7.118c0.249,0.897,0.494,0.993,1.447,0.833
			c1.7-0.254,3.445-0.536,5.134-0.907c2.381-0.555,4.571-1.61,6.602-3.124c4.63-3.505,5.309-10.865,2.577-14.552
			C168.3,118.05,165.088,115.778,160.567,115.683z"/>
		<path class="st4" d="M204.733,120.387c-5.732-9.824-17.695-30.098-17.894-30.425c-0.355-0.503-0.766-0.608-1.333-0.291
			c-0.566,0.318-1.147,0.585-1.714,0.904c-1.991,1.088-3.934,2.163-5.989,3.214c-0.996,0.544-1.452,1.268-1.424,2.568
			c0.208,4.356,0.582,25.288,0.675,31.419c0.069,1.452,0.148,1.54,1.581,1.204c2.043-0.503,4.099-0.956,6.141-1.458
			c1.181-0.267,2.31-0.521,3.476-0.84c0.863-0.235,0.974-0.429,0.674-1.328c-0.042-0.152-0.134-0.291-0.176-0.442
			c-0.872-1.996-2.997-7.191-3.257-7.938c2.03-0.554,3.956-1.08,6.086-1.661c0.138,0.507,1.334,6.284,1.781,8.723
			c0.157,0.774,0.379,0.987,1.231,0.917c0.803-0.056,1.591-0.162,2.379-0.268c2.67-0.402,5.149-1.297,7.574-2.395
			c0.923-0.415,0.932-0.581,0.415-1.475C204.918,120.663,204.826,120.525,204.733,120.387z M184.492,110.709
			c-0.585-2.946-0.697-5.749-0.494-8.801c1.937,2.304,3.265,4.775,4.546,7.477C187.139,109.824,185.848,110.285,184.492,110.709z"/>
		<path class="st4" d="M232.378,86.784c-2.102-0.086-4.147-0.223-6.196-0.307c-1.368-0.003-1.587,0.198-1.696,1.562
			c-0.222,5.411-0.508,12.397-0.782,17.806c-0.013,0.315-0.027,0.682-0.054,1.313c-0.448-0.598-0.7-0.871-0.947-1.249
			c-1.75-2.282-3.065-4.809-4.166-7.485c-1.344-3.16-2.674-7.95-3.432-11.296c-0.085-0.477-0.28-0.853-0.858-0.876
			c-1.519-0.168-3.036-0.388-4.557-0.503c-1.049-0.096-1.219,0.213-1.21,1.266c0.048,2.685,0.187,7.006,0.131,9.634
			c-0.126,6.941-0.673,13.864-1.533,20.722c-0.158,1.309-0.319,2.67-0.426,3.981c-0.091,0.943,0.16,1.217,1.155,1.31
			c0.263,0.01,0.525,0.021,0.841,0.035c2.051,0.031,4.103,0.063,6.152,0.094c1.314,0.054,1.476-0.045,1.479-1.413
			c0.004-1.367-0.281-11.114-0.206-14.215c0.104,0.004,4.224,9.907,5.638,13.912c0.421,1.28,1.232,1.998,2.598,2.106
			c1.521,0.115,3.044,0.178,4.567,0.24c0.63,0.026,0.852-0.228,0.877-0.859c0.026-0.63-0.056-1.212-0.03-1.842
			c0.171-2.888,0.29-5.776,0.514-8.661c0.378-5.352,1.069-10.69,2.022-15.965c0.404-2.141,0.819-5.859,1.171-8.003
			C233.577,87.044,233.373,86.878,232.378,86.784z"/>
		<path class="st4" d="M254.645,101.056c1.89,0.469,3.715,0.973,5.62,1.392c1.238,0.269,1.496-0.037,1.598-1.27
			c0.168-1.983,0.267-3.382,0.484-5.349c0.103-1.233,0.311-1.554-1.026-1.854c-2.273-0.477-13.13-3.801-16.266-4.871
			c-0.453-0.139-0.963,0.09-1.086,0.492c-0.742,2.247-1.454,4.393-2.15,6.488c-0.201,0.654,0.125,1.028,0.728,1.212
			c1.307,0.4,2.614,0.801,3.92,1.201c0.452,0.139,0.89,0.328,1.292,0.451c-0.601,1.96-1.154,3.77-1.76,5.564
			c-2.179,6.754-4.391,13.444-6.555,20.148c-0.405,1.141-0.284,1.288,0.888,1.591c2.675,0.6,5.335,1.25,8.01,1.848
			c0.92,0.227,1.214-0.013,1.174-0.959c-0.154-2.906,0.341-5.778,0.819-8.601c0.549-3.405,1.112-6.861,1.775-10.286
			c0.438-2.505,0.845-4.909,1.313-7.516C253.89,100.825,254.242,100.932,254.645,101.056z"/>
		<path class="st4" d="M287.516,107.539c-0.618-0.198-1.21-0.442-1.83-0.64c-2.152-0.717-4.263-1.406-6.433-2.196
			c-1.077-0.358-1.917-0.199-2.851,0.707c-3.049,3.12-18.123,17.65-22.549,21.895c-1.017,1.04-1.027,1.157,0.196,1.978
			c1.759,1.152,3.49,2.351,5.249,3.503c1.001,0.683,1.955,1.337,2.982,1.974c0.761,0.471,0.978,0.42,1.432-0.412
			c0.083-0.134,0.122-0.296,0.204-0.43c0.868-1.998,3.225-7.094,3.597-7.792c1.786,1.108,3.483,2.161,5.36,3.325
			c-0.276,0.447-3.693,5.257-5.175,7.246c-0.459,0.643-0.464,0.95,0.167,1.527c0.587,0.549,1.202,1.055,1.817,1.56
			c2.111,1.681,4.456,2.888,6.913,3.916c0.931,0.393,1.059,0.286,1.361-0.701c0.084-0.134,0.122-0.296,0.16-0.458
			c3.29-10.889,9.987-33.46,10.093-33.828C288.337,108.11,288.135,107.738,287.516,107.539z M275.148,123.192
			c-1.278-0.732-2.496-1.363-3.73-2.066c1.759-2.436,3.735-4.426,6.108-6.357C277.158,117.756,276.253,120.412,275.148,123.192z"/>
	</g>
	<path d="M216,134.917c-44.648,0-80.843,36.195-80.843,80.843c0,44.648,36.195,80.843,80.843,80.843s80.843-36.195,80.843-80.843
		C296.843,171.112,260.648,134.917,216,134.917z M248.212,166.966l4.571-8.386c10.886,7.018,19.634,17.052,25.068,28.929
		l-8.921,3.396C264.34,181.147,257.134,172.868,248.212,166.966z M272.25,199.806l8.938-3.403c0.943,3.182,1.66,6.46,2.132,9.818
		l-9.51,0.728C273.442,204.514,272.909,202.134,272.25,199.806z"/>
	<circle class="st4" cx="290.082" cy="149.479" r="6.761"/>
	<g>
		<path class="st4" d="M188.49,304.277c-3.364-0.637-6.515-0.231-9.169,2.231c-5.855,5.162-7.661,12.528-8.229,14.847
			c-0.543,2.835-0.842,5.767-0.34,8.672c0.841,5.07,3.835,8.384,8.534,9.938c3.797,1.258,7.609,0.603,11.188-1.33
			c0.631-0.318,0.656-0.816,0.554-1.42c-0.341-2.448-0.703-4.847-1.044-7.294c0.008-0.167-0.051-0.302-0.092-0.488
			c-0.2-0.643-0.66-0.766-1.243-0.429c-0.175,0.157-0.35,0.315-0.572,0.454c-1.524,1.154-3.286,1.764-5.159,1.936
			c-2.575,0.235-5.471-1.743-5.682-4.816c-0.047-1.035-0.095-2.069,0.073-3.076c0.413-3.225,1.758-6.086,3.639-8.737
			c0.772-1.109,1.732-1.976,2.879-2.601c1.216-0.654,2.397-0.644,3.574,0.098c1.129,0.723,3.11,4.32,3.359,4.981
			c0.348,0.7,0.723,1.185,1.576,0.446c1.657-1.497,3.284-3.063,4.912-4.628c0.998-0.964,1.022-1.462,0.264-2.55
			C195.26,307.318,192.448,304.978,188.49,304.277z"/>
		<path class="st4" d="M227.405,344.161c-2.655-11.062-8.261-33.93-8.356-34.3c-0.195-0.583-0.559-0.804-1.192-0.662
			c-0.634,0.141-1.269,0.229-1.903,0.37c-2.221,0.468-4.39,0.937-6.662,1.351c-1.11,0.234-1.757,0.795-2.104,2.049
			c-1.059,4.232-6.742,24.385-8.421,30.283c-0.354,1.411-0.304,1.518,1.166,1.609c2.102,0.108,4.202,0.268,6.303,0.376
			c1.207,0.084,2.361,0.167,3.57,0.198c0.894,0.024,1.057-0.13,1.028-1.077c0.004-0.158-0.044-0.317-0.04-0.475
			c-0.259-2.164-0.796-7.753-0.829-8.542c2.104,0.056,4.101,0.107,6.308,0.166c-0.014,0.526-0.535,6.403-0.811,8.867
			c-0.074,0.788,0.077,1.054,0.914,1.234c0.784,0.178,1.57,0.304,2.354,0.43c2.673,0.385,5.307,0.244,7.945-0.107
			c1.004-0.132,1.06-0.288,0.823-1.293C227.502,344.48,227.453,344.32,227.405,344.161z M210.814,329.052
			c0.287-2.99,0.991-5.707,2.065-8.571c1.188,2.766,1.749,5.515,2.196,8.472C213.604,328.968,212.234,329.037,210.814,329.052z"/>
		<path class="st4" d="M265.084,333.988c-2.148-3.149-4.075-8.379-5.465-11.904c-2.368-6.022-4.542-12.447-6.878-18.537
			c-0.188-0.38-0.376-0.76-0.58-1.189c-0.528-1.041-0.662-1.106-1.804-0.709c-1.938,0.672-3.84,1.443-5.76,2.166
			c-0.646,0.224-0.857,0.576-0.801,1.224c0.03,1.047,0.666,13.625,0.26,14.378c-0.573-0.691-5.834-7.992-7.653-11.312
			c-0.714-1.255-0.763-1.238-2.104-0.772c-1.606,0.502-3.213,1.004-4.819,1.506c-0.696,0.241-0.811,0.393-0.584,1.205
			c1.096,3.96,2.044,7.972,3.238,11.897c1.923,6.344,4.461,13.978,6.483,20.288c0.121,0.347,0.259,0.745,0.446,1.125
			c0.392,0.81,0.744,1.022,1.638,0.711c1.688-0.586,3.427-1.189,5.082-1.875c1.174-0.463,1.236-0.763,0.624-1.887
			c-2.11-3.998-4.472-9.521-5.805-13.844c-0.209-0.762-0.727-2.252-0.935-3.015c0.482,0.11,3.787,3.86,5.034,5.208
			c0.54,0.592,1.174,0.817,1.951,0.492c0.845-0.293,1.706-0.537,2.484-0.862c1.075-0.429,1.269-0.83,1.155-1.959
			c0.013-0.283-0.022-0.549-0.059-0.814c-0.105-1.745-0.189-4.553-0.012-6.285c0.085-1.198,5.985,14.84,7.25,17.685
			c0.429,1.075,0.729,1.139,1.804,0.709c1.755-0.72,3.575-1.408,5.378-2.144C265.481,335.131,265.595,334.814,265.084,333.988z"/>
	</g>
</g>
</svg>
